<svg width="414" height="140" viewBox="0 0 414 140" fill="none" xmlns="http://www.w3.org/2000/svg">
<g clip-path="url(#clip0_229_197)">
<g clip-path="url(#clip1_229_197)">
<path d="M176.178 71.7957C176.178 91.2283 160.973 105.548 142.313 105.548C123.652 105.548 108.447 91.2283 108.447 71.7957C108.447 52.2261 123.652 38.0435 142.313 38.0435C160.973 38.0435 176.178 52.2261 176.178 71.7957ZM161.353 71.7957C161.353 59.6522 152.541 51.3435 142.313 51.3435C132.084 51.3435 123.272 59.6522 123.272 71.7957C123.272 83.8174 132.084 92.2478 142.313 92.2478C152.541 92.2478 161.353 83.8022 161.353 71.7957Z" fill="#EA4335"/>
<path d="M249.237 71.7957C249.237 91.2283 234.032 105.548 215.371 105.548C196.711 105.548 181.505 91.2283 181.505 71.7957C181.505 52.2413 196.711 38.0435 215.371 38.0435C234.032 38.0435 249.237 52.2261 249.237 71.7957ZM234.412 71.7957C234.412 59.6522 225.6 51.3435 215.371 51.3435C205.143 51.3435 196.33 59.6522 196.33 71.7957C196.33 83.8174 205.143 92.2478 215.371 92.2478C225.6 92.2478 234.412 83.8022 234.412 71.7957Z" fill="#FBBC05"/>
<path d="M319.252 40.0826V100.678C319.252 125.604 304.549 135.785 287.167 135.785C270.805 135.785 260.957 124.843 257.243 115.896L270.15 110.524C272.449 116.017 278.08 122.5 287.152 122.5C298.278 122.5 305.173 115.637 305.173 102.717V97.863H304.655C301.337 101.957 294.945 105.533 286.878 105.533C269.998 105.533 254.534 90.8326 254.534 71.9174C254.534 52.8652 269.998 38.0435 286.878 38.0435C294.929 38.0435 301.322 41.6196 304.655 45.5913H305.173V40.0978H319.252V40.0826ZM306.223 71.9174C306.223 60.0326 298.293 51.3435 288.202 51.3435C277.974 51.3435 269.404 60.0326 269.404 71.9174C269.404 83.6804 277.974 92.2478 288.202 92.2478C298.293 92.2478 306.223 83.6804 306.223 71.9174Z" fill="#4285F4"/>
<path d="M342.463 4.56522V103.478H328.004V4.56522H342.463Z" fill="#34A853"/>
<path d="M398.81 82.9043L410.317 90.5739C406.603 96.0674 397.653 105.533 382.189 105.533C363.011 105.533 348.688 90.7109 348.688 71.7804C348.688 51.7087 363.133 38.0283 380.53 38.0283C398.049 38.0283 406.618 51.9674 409.419 59.5L410.956 63.3348L365.827 82.0217C369.282 88.7935 374.655 92.2478 382.189 92.2478C389.738 92.2478 394.974 88.5348 398.81 82.9043ZM363.392 70.7609L393.559 58.237C391.9 54.0217 386.907 51.0848 381.032 51.0848C373.498 51.0848 363.011 57.7348 363.392 70.7609Z" fill="#EA4335"/>
<path d="M53.7135 63.0152V48.6956H101.978C102.45 51.1913 102.693 54.1435 102.693 57.3391C102.693 68.0826 99.7557 81.3674 90.2885 90.8326C81.0801 100.42 69.3146 105.533 53.7287 105.533C24.84 105.533 0.547943 82.0065 0.547943 53.1239C0.547943 24.2413 24.84 0.71521 53.7287 0.71521C69.7103 0.71521 81.0953 6.98478 89.6493 15.1565L79.5428 25.2609C73.4089 19.5087 65.0985 15.0348 53.7135 15.0348C32.6177 15.0348 16.1186 32.0326 16.1186 53.1239C16.1186 74.2152 32.6177 91.213 53.7135 91.213C67.3968 91.213 75.1897 85.7196 80.1821 80.7282C84.2307 76.6804 86.8943 70.8978 87.9445 63L53.7135 63.0152Z" fill="#4285F4"/>
</g>
</g>
<defs>
<clipPath id="clip0_229_197">
<rect width="414" height="140" fill="white"/>
</clipPath>
<clipPath id="clip1_229_197">
<rect width="414" height="140" fill="white"/>
</clipPath>
</defs>
</svg>
